<svg width="51" height="16" viewBox="0 0 51 16" fill="none" xmlns="http://www.w3.org/2000/svg">
<path d="M0 7.99997C0 7.44769 0.447715 6.99997 1 6.99997H48C48.5523 6.99997 49 7.44769 49 7.99997C49 8.55226 48.5523 8.99997 48 8.99997H1C0.447715 8.99997 0 8.55226 0 7.99997Z" fill="url(#paint0_linear_202:57)"/>
<path d="M42.7071 15.0813C42.3166 14.6908 42.3166 14.0577 42.7071 13.6671L49.0711 7.30317C49.4616 6.91265 50.0948 6.91265 50.4853 7.30317C50.8758 7.69369 50.8758 8.32686 50.4853 8.71738L44.1213 15.0813C43.7308 15.4719 43.0976 15.4719 42.7071 15.0813Z" fill="url(#paint1_linear_202:57)"/>
<path d="M42.707 0.707078C43.0975 0.316554 43.7306 0.316554 44.1212 0.707078L50.4851 7.07104C50.8757 7.46156 50.8757 8.09473 50.4851 8.48525C50.0946 8.87578 49.4614 8.87578 49.0709 8.48525L42.707 2.12129C42.3164 1.73077 42.3164 1.0976 42.707 0.707078Z" fill="url(#paint2_linear_202:57)"/>
<defs>
<linearGradient id="paint0_linear_202:57" x1="42.6022" y1="0.811866" x2="50.4592" y2="8.51176" gradientUnits="userSpaceOnUse">
<stop stop-color="#F7AC72"/>
<stop offset="1" stop-color="#C6945F"/>
</linearGradient>
<linearGradient id="paint1_linear_202:57" x1="42.6022" y1="0.811866" x2="50.4592" y2="8.51176" gradientUnits="userSpaceOnUse">
<stop stop-color="#F7AC72"/>
<stop offset="1" stop-color="#C6945F"/>
</linearGradient>
<linearGradient id="paint2_linear_202:57" x1="42.6022" y1="0.811866" x2="50.4592" y2="8.51176" gradientUnits="userSpaceOnUse">
<stop stop-color="#F7AC72"/>
<stop offset="1" stop-color="#C6945F"/>
</linearGradient>
</defs>
</svg>
