<svg width="24" height="24" viewBox="0 0 24 24" fill="none" xmlns="http://www.w3.org/2000/svg">
<path fill-rule="evenodd" clip-rule="evenodd" d="M13.356 0H24V10.9191L10.6459 24L0 12.514L13.356 0ZM14.1531 2.09443L2.92013 12.6192L10.716 21.0303L21.9509 10.0253V2.09443H14.1531Z" fill="#F7AC72"/>
<path fill-rule="evenodd" clip-rule="evenodd" d="M17.8527 6.2833C18.1356 6.2833 18.365 6.04888 18.365 5.75969C18.365 5.47051 18.1356 5.23609 17.8527 5.23609C17.5698 5.23609 17.3404 5.47051 17.3404 5.75969C17.3404 6.04888 17.5698 6.2833 17.8527 6.2833ZM17.8527 8.37774C19.2673 8.37774 20.4141 7.2056 20.4141 5.75969C20.4141 4.31379 19.2673 3.14165 17.8527 3.14165C16.4381 3.14165 15.2913 4.31379 15.2913 5.75969C15.2913 7.2056 16.4381 8.37774 17.8527 8.37774Z" fill="#F7AC72"/>
</svg>
